<mxfile host="Electron" agent="Mozilla/5.0 (Macintosh; Intel Mac OS X 10_15_7) AppleWebKit/537.36 (KHTML, like Gecko) draw.io/28.2.7 Chrome/138.0.7204.251 Electron/37.7.1 Safari/537.36" version="28.2.7">
  <diagram id="XS-wpbxGZWswODQf4VbH" name="Page-1">
    <mxGraphModel dx="1155" dy="846" grid="1" gridSize="10" guides="1" tooltips="1" connect="1" arrows="1" fold="1" page="1" pageScale="1" pageWidth="1654" pageHeight="2339" math="0" shadow="0">
      <root>
        <mxCell id="0" />
        <mxCell id="1" parent="0" />
        <mxCell id="title" value="Jupiter Wheels - Dynamic Consistency Boundaries" style="text;html=1;strokeColor=#001DBC;fillColor=#0050ef;align=center;verticalAlign=middle;whiteSpace=wrap;rounded=0;fontSize=24;fontStyle=1;fontColor=#ffffff;textShadow=1;" parent="1" vertex="1">
          <mxGeometry x="427" y="20" width="800" height="40" as="geometry" />
        </mxCell>
        <mxCell id="dcb1" value="DCB-1: Bike Availability Consistency" style="rounded=1;whiteSpace=wrap;html=1;fillColor=#0050ef;strokeColor=#001DBC;fontSize=16;fontStyle=1;fontColor=#ffffff;textShadow=1;" parent="1" vertex="1">
          <mxGeometry x="100" y="100" width="300" height="50" as="geometry" />
        </mxCell>
        <mxCell id="dcb1_details" value="Static: Bike Status (AVAILABLE, RENTED, OUT_OF_SERVICE)&#xa;Dynamic Elements:&#xa;• Atomic reservation during rental request&#xa;• Status coordination during replacement&#xa;• Cross-context availability sync&#xa;&#xa;Invariants:&#xa;• One bike = One user at a time&#xa;• Removed bikes cannot be rented&#xa;• Status consistency across contexts" style="rounded=1;whiteSpace=wrap;html=1;fillColor=#0050ef;strokeColor=#001DBC;fontSize=11;align=left;fontColor=#ffffff;textShadow=1;" parent="1" vertex="1">
          <mxGeometry x="100" y="160" width="300" height="140" as="geometry" />
        </mxCell>
        <mxCell id="dcb2" value="DCB-2: Rental Transaction Consistency" style="rounded=1;whiteSpace=wrap;html=1;fillColor=#0050ef;strokeColor=#001DBC;fontSize=16;fontStyle=1;fontColor=#ffffff;textShadow=1;" parent="1" vertex="1">
          <mxGeometry x="450" y="100" width="300" height="50" as="geometry" />
        </mxCell>
        <mxCell id="dcb2_details" value="Static: Rental State (REQUESTED, ACTIVE, PAUSED)&#xa;Dynamic Elements:&#xa;• 10-minute payment deadline&#xa;• State transition coordination&#xa;• Usage continuity during pause/resume&#xa;&#xa;Invariants:&#xa;• Cannot pause inactive rentals&#xa;• Payment timeout cancels request&#xa;• Duration affects billing consistency" style="rounded=1;whiteSpace=wrap;html=1;fillColor=#0050ef;strokeColor=#001DBC;fontSize=11;align=left;fontColor=#ffffff;textShadow=1;" parent="1" vertex="1">
          <mxGeometry x="450" y="160" width="300" height="140" as="geometry" />
        </mxCell>
        <mxCell id="dcb3" value="DCB-3: Payment Processing Consistency" style="rounded=1;whiteSpace=wrap;html=1;fillColor=#0050ef;strokeColor=#001DBC;fontSize=16;fontStyle=1;fontColor=#ffffff;textShadow=1;" parent="1" vertex="1">
          <mxGeometry x="800" y="100" width="300" height="50" as="geometry" />
        </mxCell>
        <mxCell id="dcb3_details" value="Static: Payment Status (PREPARED, COMPLETED, FAILED)&#xa;Dynamic Elements:&#xa;• Retry logic after failures&#xa;• External gateway integration&#xa;• Timeout-based state changes&#xa;&#xa;Invariants:&#xa;• Success unlocks bike access&#xa;• Failure releases reservations&#xa;• Only prepared payments can progress" style="rounded=1;whiteSpace=wrap;html=1;fillColor=#0050ef;strokeColor=#001DBC;fontSize=11;align=left;fontColor=#ffffff;textShadow=1;" parent="1" vertex="1">
          <mxGeometry x="800" y="160" width="300" height="140" as="geometry" />
        </mxCell>
        <mxCell id="dcb4" value="DCB-4: Return Workflow Consistency" style="rounded=1;whiteSpace=wrap;html=1;fillColor=#0050ef;strokeColor=#001DBC;fontSize=16;fontStyle=1;fontColor=#ffffff;textShadow=1;" parent="1" vertex="1">
          <mxGeometry x="100" y="350" width="300" height="50" as="geometry" />
        </mxCell>
        <mxCell id="dcb4_details" value="Static: Return State (Photo, Survey, Inspection)&#xa;Dynamic Elements:&#xa;• Multi-step validation workflow&#xa;• Replacement integration&#xa;• Quality gate progression&#xa;&#xa;Invariants:&#xa;• Photo approval before inspection&#xa;• Completed inspection = available bike&#xa;• Valid return location required" style="rounded=1;whiteSpace=wrap;html=1;fillColor=#0050ef;strokeColor=#001DBC;fontSize=11;align=left;fontColor=#ffffff;textShadow=1;" parent="1" vertex="1">
          <mxGeometry x="100" y="410" width="300" height="140" as="geometry" />
        </mxCell>
        <mxCell id="dcb5" value="DCB-5: Fleet Operations Consistency" style="rounded=1;whiteSpace=wrap;html=1;fillColor=#0050ef;strokeColor=#001DBC;fontSize=16;fontStyle=1;fontColor=#ffffff;textShadow=1;" parent="1" vertex="1">
          <mxGeometry x="450" y="350" width="300" height="50" as="geometry" />
        </mxCell>
        <mxCell id="dcb5_details" value="Static: Fleet Inventory &amp; Maintenance State&#xa;Dynamic Elements:&#xa;• Condition-based availability&#xa;• Monitoring-triggered changes&#xa;• Capacity management&#xa;&#xa;Invariants:&#xa;• Good condition = rental eligible&#xa;• Maintenance history preserved&#xa;• Fleet capacity maintained" style="rounded=1;whiteSpace=wrap;html=1;fillColor=#0050ef;strokeColor=#001DBC;fontSize=11;align=left;fontColor=#ffffff;textShadow=1;" parent="1" vertex="1">
          <mxGeometry x="450" y="410" width="300" height="140" as="geometry" />
        </mxCell>
        <mxCell id="interactions_title" value="CONSISTENCY INTERACTIONS" style="text;html=1;strokeColor=#001DBC;fillColor=#0050ef;align=center;verticalAlign=middle;whiteSpace=wrap;rounded=0;fontSize=18;fontStyle=1;fontColor=#ffffff;textShadow=1;" parent="1" vertex="1">
          <mxGeometry x="800" y="350" width="300" height="30" as="geometry" />
        </mxCell>
        <mxCell id="arrow1" value="Rental Request&#xa;Coordination" style="endArrow=classic;html=1;rounded=0;strokeColor=#001DBC;strokeWidth=2;fillColor=#0050ef;textShadow=1;" parent="1" source="dcb1" target="dcb2" edge="1">
          <mxGeometry width="50" height="50" relative="1" as="geometry">
            <mxPoint x="400" y="125" as="sourcePoint" />
            <mxPoint x="450" y="125" as="targetPoint" />
          </mxGeometry>
        </mxCell>
        <mxCell id="arrow2" value="Payment&#xa;Triggers" style="endArrow=classic;html=1;rounded=0;strokeColor=#001DBC;strokeWidth=2;fillColor=#0050ef;textShadow=1;" parent="1" source="dcb2" target="dcb3" edge="1">
          <mxGeometry width="50" height="50" relative="1" as="geometry">
            <mxPoint x="750" y="125" as="sourcePoint" />
            <mxPoint x="800" y="125" as="targetPoint" />
          </mxGeometry>
        </mxCell>
        <mxCell id="arrow3" value="Return&#xa;Process" style="endArrow=classic;html=1;rounded=0;strokeColor=#001DBC;strokeWidth=2;fillColor=#0050ef;textShadow=1;" parent="1" source="dcb2_details" target="dcb4" edge="1">
          <mxGeometry width="50" height="50" relative="1" as="geometry">
            <mxPoint x="450" y="300" as="sourcePoint" />
            <mxPoint x="300" y="350" as="targetPoint" />
            <Array as="points">
              <mxPoint x="450" y="320" />
              <mxPoint x="250" y="320" />
            </Array>
          </mxGeometry>
        </mxCell>
        <mxCell id="arrow4" value="Bike Status&#xa;Updates" style="endArrow=classic;html=1;rounded=0;strokeColor=#001DBC;strokeWidth=2;fillColor=#0050ef;textShadow=1;" parent="1" source="dcb4_details" target="dcb5" edge="1">
          <mxGeometry width="50" height="50" relative="1" as="geometry">
            <mxPoint x="400" y="480" as="sourcePoint" />
            <mxPoint x="450" y="480" as="targetPoint" />
          </mxGeometry>
        </mxCell>
        <mxCell id="arrow5" value="Fleet&#xa;Availability" style="endArrow=classic;html=1;rounded=0;strokeColor=#001DBC;strokeWidth=2;fillColor=#0050ef;textShadow=1;" parent="1" source="dcb5_details" target="dcb1_details" edge="1">
          <mxGeometry width="50" height="50" relative="1" as="geometry">
            <mxPoint x="450" y="480" as="sourcePoint" />
            <mxPoint x="250" y="300" as="targetPoint" />
            <Array as="points">
              <mxPoint x="450" y="580" />
              <mxPoint x="50" y="580" />
              <mxPoint x="50" y="230" />
            </Array>
          </mxGeometry>
        </mxCell>
        <mxCell id="legend_title" value="CONSISTENCY LEVELS" style="rounded=1;whiteSpace=wrap;html=1;fillColor=#0050ef;strokeColor=#001DBC;fontSize=14;fontStyle=1;fontColor=#ffffff;textShadow=1;" parent="1" vertex="1">
          <mxGeometry x="800" y="390" width="300" height="40" as="geometry" />
        </mxCell>
        <mxCell id="strong_consistency" value="Strong Consistency" style="rounded=1;whiteSpace=wrap;html=1;fillColor=#0050ef;strokeColor=#001DBC;fontSize=12;fontColor=#ffffff;textShadow=1;" parent="1" vertex="1">
          <mxGeometry x="800" y="440" width="140" height="30" as="geometry" />
        </mxCell>
        <mxCell id="strong_desc" value="• Atomic operations&#xa;• Immediate consistency&#xa;• ACID transactions" style="rounded=0;whiteSpace=wrap;html=1;fillColor=#0050ef;strokeColor=#001DBC;fontSize=10;align=left;fontColor=#ffffff;textShadow=1;" parent="1" vertex="1">
          <mxGeometry x="950" y="435" width="150" height="40" as="geometry" />
        </mxCell>
        <mxCell id="eventual_consistency" value="Eventual Consistency" style="rounded=1;whiteSpace=wrap;html=1;fillColor=#0050ef;strokeColor=#001DBC;fontSize=12;fontColor=#ffffff;textShadow=1;" parent="1" vertex="1">
          <mxGeometry x="800" y="480" width="140" height="30" as="geometry" />
        </mxCell>
        <mxCell id="eventual_desc" value="• Event-driven updates&#xa;• Cross-boundary sync&#xa;• BASE properties" style="rounded=0;whiteSpace=wrap;html=1;fillColor=#0050ef;strokeColor=#001DBC;fontSize=10;align=left;fontColor=#ffffff;textShadow=1;" parent="1" vertex="1">
          <mxGeometry x="950" y="475" width="150" height="40" as="geometry" />
        </mxCell>
        <mxCell id="temporal_consistency" value="Temporal Consistency" style="rounded=1;whiteSpace=wrap;html=1;fillColor=#0050ef;strokeColor=#001DBC;fontSize=12;fontColor=#ffffff;textShadow=1;" parent="1" vertex="1">
          <mxGeometry x="800" y="520" width="140" height="30" as="geometry" />
        </mxCell>
        <mxCell id="temporal_desc" value="• Time-based deadlines&#xa;• Timeout handling&#xa;• Deadline coordination" style="rounded=0;whiteSpace=wrap;html=1;fillColor=#0050ef;strokeColor=#001DBC;fontSize=10;align=left;fontColor=#ffffff;textShadow=1;" parent="1" vertex="1">
          <mxGeometry x="950" y="515" width="150" height="40" as="geometry" />
        </mxCell>
        <mxCell id="dynamic_title" value="DYNAMIC ASPECTS" style="text;html=1;strokeColor=#001DBC;fillColor=#0050ef;align=center;verticalAlign=middle;whiteSpace=wrap;rounded=0;fontSize=16;fontStyle=1;fontColor=#ffffff;textShadow=1;" parent="1" vertex="1">
          <mxGeometry x="100" y="600" width="200" height="30" as="geometry" />
        </mxCell>
        <mxCell id="state_transitions" value="State Transitions" style="rounded=1;whiteSpace=wrap;html=1;fillColor=#0050ef;strokeColor=#001DBC;fontSize=14;fontStyle=1;fontColor=#ffffff;textShadow=1;" parent="1" vertex="1">
          <mxGeometry x="100" y="640" width="150" height="40" as="geometry" />
        </mxCell>
        <mxCell id="state_desc" value="• Rental: REQUESTED → ACTIVE → PAUSED → COMPLETED&#xa;• Payment: PREPARED → COMPLETED/FAILED → RETRY&#xa;• Bike: AVAILABLE → RENTED → AVAILABLE" style="rounded=1;whiteSpace=wrap;html=1;fillColor=#0050ef;strokeColor=#001DBC;fontSize=10;align=left;fontColor=#ffffff;textShadow=1;" parent="1" vertex="1">
          <mxGeometry x="100" y="690" width="350" height="60" as="geometry" />
        </mxCell>
        <mxCell id="temporal_bounds" value="Temporal Boundaries" style="rounded=1;whiteSpace=wrap;html=1;fillColor=#0050ef;strokeColor=#001DBC;fontSize=14;fontStyle=1;fontColor=#ffffff;textShadow=1;" parent="1" vertex="1">
          <mxGeometry x="500" y="640" width="150" height="40" as="geometry" />
        </mxCell>
        <mxCell id="temporal_bounds_desc" value="• Payment deadline: 10 minutes&#xa;• Rental pause limit: 30 minutes&#xa;• Extended pause fees trigger&#xa;• Return workflow timeouts" style="rounded=1;whiteSpace=wrap;html=1;fillColor=#0050ef;strokeColor=#001DBC;fontSize=10;align=left;fontColor=#ffffff;textShadow=1;" parent="1" vertex="1">
          <mxGeometry x="500" y="690" width="250" height="60" as="geometry" />
        </mxCell>
        <mxCell id="external_coordination" value="External Coordination" style="rounded=1;whiteSpace=wrap;html=1;fillColor=#0050ef;strokeColor=#001DBC;fontSize=14;fontStyle=1;fontColor=#ffffff;textShadow=1;" parent="1" vertex="1">
          <mxGeometry x="800" y="640" width="150" height="40" as="geometry" />
        </mxCell>
        <mxCell id="external_desc" value="• Payment gateway synchronization&#xa;• Bluetooth unlock coordination&#xa;• Monitoring system integration&#xa;• Inspection system workflow" style="rounded=1;whiteSpace=wrap;html=1;fillColor=#0050ef;strokeColor=#001DBC;fontSize=10;align=left;fontColor=#ffffff;textShadow=1;" parent="1" vertex="1">
          <mxGeometry x="800" y="690" width="250" height="60" as="geometry" />
        </mxCell>
      </root>
    </mxGraphModel>
  </diagram>
</mxfile>
